<?xml version="1.0" standalone="no"?>
<!DOCTYPE svg PUBLIC "-//W3C//DTD SVG 20010904//EN"
 "http://www.w3.org/TR/2001/REC-SVG-20010904/DTD/svg10.dtd">
<svg version="1.0" xmlns="http://www.w3.org/2000/svg"
 width="300.000000pt" height="254.000000pt" viewBox="0 0 300.000000 254.000000"
 preserveAspectRatio="xMidYMid meet">
<metadata>
Created by potrace 1.10, written by Peter Selinger 2001-2011
</metadata>
<g transform="translate(0.000000,254.000000) scale(0.100000,-0.100000)"
fill="#000000" stroke="none">
<path d="M1487 1937 c-4 -10 -7 -44 -7 -75 0 -67 -24 -223 -46 -303 l-16 -56
-60 -17 c-190 -53 -482 -178 -594 -253 -145 -98 -194 -208 -124 -273 29 -27
74 -42 170 -55 52 -7 45 6 -12 24 -37 12 -88 61 -88 84 0 7 11 35 24 62 39 84
153 173 344 269 112 56 332 148 332 138 0 -12 -42 -76 -59 -90 -51 -42 -186
-86 -321 -105 -14 -2 0 -7 35 -11 117 -16 233 -60 293 -111 56 -47 108 -238
119 -438 3 -59 9 -107 13 -107 4 0 10 42 13 93 3 50 13 136 23 191 14 80 21
100 38 107 12 5 80 29 151 55 353 126 564 253 617 372 37 83 3 130 -117 157
-85 20 -104 14 -43 -12 75 -34 88 -87 39 -164 -52 -81 -155 -158 -331 -248
-107 -55 -319 -146 -325 -139 -6 6 44 110 63 132 37 40 160 88 284 110 l73 13
-50 7 c-218 32 -314 84 -355 194 -30 78 -58 230 -67 359 -5 64 -11 101 -16 90z
m24 -399 c16 -62 68 -156 98 -177 14 -10 50 -31 79 -46 28 -15 52 -30 52 -34
0 -3 -21 -15 -47 -25 -26 -11 -65 -36 -87 -55 -38 -35 -86 -119 -86 -153 0
-21 -21 -68 -30 -68 -4 0 -13 21 -20 48 -31 113 -83 179 -179 227 l-54 27 64
34 c84 44 121 88 155 185 16 43 32 79 36 79 4 0 12 -19 19 -42z m786 -70 c-4
-13 -13 -32 -22 -43 -14 -19 -15 -19 -5 8 5 16 10 40 10 55 0 19 3 23 11 15 6
-6 9 -22 6 -35z m-1595 -360 c-5 -7 -15 -32 -21 -56 -7 -25 -16 -40 -22 -36
-6 3 -8 18 -4 32 7 30 45 86 53 78 2 -3 0 -11 -6 -18z"/>
<path d="M1027 1165 c-23 -152 -36 -172 -125 -190 -57 -12 -57 -12 -22 -19 60
-12 107 -37 119 -63 6 -14 16 -59 22 -101 6 -43 12 -78 13 -80 2 -1 6 29 10
68 11 125 37 158 136 175 l45 8 -57 12 c-90 18 -111 48 -126 177 l-8 63 -7
-50z m24 -175 c24 -14 24 -32 -1 -55 -17 -16 -21 -16 -35 -2 -18 19 -19 39 -3
55 15 15 15 15 39 2z"/>
</g>
</svg>
