<svg xmlns="http://www.w3.org/2000/svg" viewBox="0 0 24 24" fill="none" stroke="currentColor" stroke-width="2" stroke-linecap="round" stroke-linejoin="round">
  <path d="M4.5 16.5c-1.5 1.25-2 5-2 5s3.75-.5 5-2c.625-.625 1-1.375 1-2.125 0-1.125-.875-2-2-2-.75 0-1.5.375-2 1z"/>
  <path d="m12 15-3-3a22 22 0 0 1 2-3.95A12.88 12.88 0 0 1 22 2c0 2.72-.78 7.5-6 11a22.35 22.35 0 0 1-4 2z"/>
  <path d="M9 12H4s.55-3.03 2-4c1.62-1.08 5 0 5 0"/>
  <path d="M12 15v5s3.03-.55 4-2c1.08-1.62 0-5 0-5"/>
</svg>
